<?xml version="1.0" standalone="no"?>
<!DOCTYPE svg PUBLIC "-//W3C//DTD SVG 20010904//EN"
 "http://www.w3.org/TR/2001/REC-SVG-20010904/DTD/svg10.dtd">
<svg version="1.0" xmlns="http://www.w3.org/2000/svg"
 width="400.000000pt" height="400.000000pt" viewBox="0 0 400.000000 400.000000"
 preserveAspectRatio="xMidYMid meet">
<metadata>
Created by potrace 1.14, written by Peter Selinger 2001-2017
</metadata>
<g transform="translate(0.000000,400.000000) scale(0.100000,-0.100000)"
fill="#000000" stroke="none">
<path d="M1558 3985 c-3 -3 -2 -25 3 -48 8 -47 -1 -59 -41 -51 -45 10 -47 12
-53 43 -6 28 -10 31 -46 31 -22 0 -43 5 -46 10 -4 6 -103 10 -263 10 l-257 0
-39 -32 c-44 -36 -118 -48 -146 -24 -47 41 -98 56 -197 56 -86 -1 -96 -2 -80
-15 11 -8 17 -23 15 -37 -2 -19 -9 -23 -38 -24 -20 0 -47 -8 -62 -18 -35 -23
-89 -18 -103 9 -5 12 -20 33 -32 48 -18 24 -24 26 -48 17 -14 -5 -49 -10 -76
-10 l-49 0 0 -1960 0 -1960 452 0 452 0 32 36 c18 19 42 56 54 82 12 26 26 55
31 64 5 10 9 24 9 31 0 7 11 24 25 37 14 13 25 30 25 37 0 8 8 26 18 41 11 15
30 44 43 64 26 41 58 49 93 23 11 -8 34 -15 52 -15 86 0 171 -37 185 -79 3 -8
14 -14 24 -15 11 -1 32 -8 46 -15 22 -11 31 -10 57 3 21 11 33 13 38 5 3 -6
18 -9 32 -6 14 3 39 1 56 -4 17 -6 52 -14 77 -19 54 -11 137 -57 153 -85 6
-11 16 -24 22 -30 7 -5 15 -23 18 -38 4 -16 27 -48 51 -73 l44 -44 321 0 c207
0 320 4 320 10 0 6 5 10 11 10 5 0 7 -4 4 -10 -4 -7 53 -10 165 -10 112 0 169
3 165 10 -7 12 -3 12 88 12 62 0 67 1 62 19 -9 26 21 25 37 -1 17 -26 38 -26
31 0 -3 11 -10 20 -15 20 -5 0 -6 10 -2 22 6 20 5 21 -9 10 -16 -14 -37 -9
-37 9 0 5 5 9 11 9 15 0 38 31 38 50 0 10 -9 4 -26 -15 l-26 -29 -23 29 c-13
17 -24 24 -24 18 0 -7 -4 -13 -10 -13 -5 0 -10 9 -10 20 0 13 7 20 19 20 10 0
24 7 31 15 11 13 15 13 22 3 6 -8 8 4 4 34 -4 32 -2 48 7 51 9 3 9 10 -1 31
-10 22 -15 26 -26 17 -10 -8 -16 -8 -25 3 -17 20 16 82 52 97 15 6 27 14 27
18 0 9 -41 35 -64 41 -29 8 -32 30 -4 23 22 -4 22 -4 4 11 -11 9 -23 16 -26
16 -12 0 -31 -51 -23 -62 4 -8 0 -9 -11 -5 -10 4 -24 7 -32 7 -8 0 -14 5 -14
10 0 6 7 10 15 10 14 0 13 3 -2 25 -10 13 -25 22 -33 20 -10 -3 -16 2 -17 14
-1 14 3 18 13 14 8 -3 14 0 14 6 0 6 9 11 20 11 13 0 17 -5 14 -14 -3 -9 4
-19 16 -26 18 -9 21 -9 15 0 -4 7 -1 16 6 21 12 7 11 9 -1 9 -9 0 -16 9 -16
20 0 11 4 20 8 20 4 0 8 -4 8 -10 0 -5 5 -10 12 -10 6 0 20 -8 31 -18 11 -9
17 -11 13 -4 -4 6 -3 12 3 12 5 0 11 -6 14 -12 3 -10 7 -10 20 1 20 16 22 38
5 44 -8 2 -9 8 -4 13 5 5 11 4 13 -3 6 -17 24 -17 22 -1 -4 32 1 42 13 30 7
-7 15 -12 19 -12 10 0 65 55 72 72 3 8 23 18 44 21 22 4 48 16 58 27 10 11 23
20 28 20 16 0 36 33 37 62 0 15 6 33 13 40 6 7 13 25 13 39 2 29 48 84 63 75
13 -8 41 21 41 44 0 23 22 31 36 12 8 -11 13 -6 23 27 6 23 17 41 22 41 10 0
9 -5 -8 -46 -2 -6 5 -14 16 -17 12 -3 21 -1 21 5 0 6 7 8 15 4 14 -5 20 14 18
62 -1 10 2 10 13 1 8 -6 11 -15 8 -20 -3 -5 2 -9 10 -9 8 0 20 -9 26 -21 6
-11 17 -18 23 -16 6 2 21 -5 31 -15 11 -10 27 -17 36 -16 13 3 15 32 18 196
l2 193 -22 -3 c-19 -2 -23 -8 -21 -35 2 -25 0 -31 -12 -27 -8 4 -26 -1 -40
-10 -14 -9 -30 -14 -35 -11 -6 3 -10 3 -10 -2 0 -4 -7 -17 -16 -28 -13 -17
-16 -18 -24 -5 -6 9 -13 11 -17 5 -11 -14 -33 -17 -33 -5 0 6 5 10 11 10 7 0
18 8 25 18 16 20 18 72 4 72 -5 0 -10 -13 -10 -30 0 -34 -19 -40 -44 -14 -15
14 -16 14 -16 0 0 -9 -4 -16 -10 -16 -5 0 -10 -6 -10 -14 0 -8 -7 -17 -16 -20
-11 -4 -15 -2 -11 8 3 7 0 19 -6 25 -8 8 -14 5 -24 -11 -7 -13 -12 -18 -13
-11 0 7 -6 10 -14 7 -8 -3 -12 -12 -9 -20 3 -8 0 -14 -6 -14 -6 0 -11 -3 -11
-7 0 -5 20 -8 45 -9 25 0 45 3 45 8 0 4 5 8 10 8 6 0 10 -11 10 -24 0 -19 -4
-23 -20 -19 -16 4 -20 1 -18 -17 2 -13 -3 -25 -10 -27 -7 -3 -10 1 -6 11 4 11
1 16 -11 16 -11 0 -15 -5 -11 -15 3 -9 0 -15 -9 -15 -7 0 -16 14 -20 30 -4 17
-8 30 -9 30 -1 0 -21 -9 -43 -20 -24 -11 -43 -28 -46 -42 -8 -30 2 -37 19 -13
12 16 17 17 23 6 5 -7 25 -13 45 -14 37 -1 52 -17 16 -17 -13 0 -18 -5 -14
-15 7 -17 -21 -21 -31 -4 -4 6 -13 8 -21 5 -8 -3 -14 -1 -14 4 0 5 -14 8 -30
8 -21 -1 -36 6 -46 20 -15 21 -41 32 -29 12 3 -5 -1 -10 -9 -10 -23 0 -19 -17
5 -23 14 -4 20 -11 16 -21 -5 -13 0 -14 26 -9 29 6 31 5 18 -10 -12 -15 -11
-17 7 -17 20 0 38 -25 24 -34 -5 -3 -26 -1 -47 4 -22 5 -40 8 -41 7 -3 -3 13
-89 21 -115 7 -21 6 -22 -19 -11 -14 7 -26 19 -26 28 0 12 -3 12 -12 3 -17
-17 -28 -15 -28 5 0 13 -3 14 -12 5 -17 -17 -33 -15 -19 2 14 17 -1 62 -29 86
-11 10 -20 23 -20 31 0 10 -3 10 -12 1 -17 -17 -33 -15 -18 3 10 12 9 15 -5
15 -9 0 -15 5 -13 12 4 11 -25 48 -37 48 -3 0 -3 -11 1 -25 5 -22 3 -25 -22
-25 -16 0 -36 -5 -44 -10 -11 -7 -11 -10 -2 -10 7 0 10 -4 7 -10 -3 -5 -17 2
-31 18 -17 18 -24 21 -20 9 5 -17 5 -17 -18 0 -16 12 -21 22 -15 29 6 7 4 16
-5 24 -13 10 -16 7 -22 -14 -3 -14 -10 -26 -14 -26 -14 0 -30 27 -32 55 -2 15
-8 30 -16 32 -19 8 -25 -2 -13 -24 5 -10 12 -31 16 -46 3 -15 9 -26 14 -23 27
17 111 -57 111 -99 0 -8 4 -16 9 -19 12 -8 21 -46 10 -46 -5 0 -9 8 -9 18 0 9
-9 23 -20 30 -11 7 -27 29 -35 50 -17 40 -56 74 -63 53 -5 -16 -32 6 -32 26 0
8 -5 11 -11 8 -6 -4 -9 0 -7 11 2 12 -2 18 -12 16 -14 -3 -40 23 -40 40 0 4 7
8 15 8 19 0 20 19 0 26 -21 8 -28 40 -15 65 10 17 9 20 -1 14 -9 -6 -11 -3 -6
8 4 11 2 14 -9 10 -16 -6 -17 -60 0 -81 5 -8 11 -34 13 -59 1 -25 7 -51 14
-59 6 -8 7 -14 2 -14 -15 0 -32 -46 -26 -69 4 -15 1 -21 -10 -21 -8 0 -17 -3
-20 -7 -2 -5 -2 -2 -1 4 6 24 -7 44 -21 33 -8 -7 -11 -26 -7 -55 5 -44 4 -45
-24 -44 -17 1 -22 3 -11 6 20 5 23 33 3 33 -8 0 -16 6 -18 12 -4 10 -10 10
-31 1 -19 -9 -27 -9 -27 -2 0 6 -9 9 -19 6 -10 -2 -25 -1 -32 4 -11 8 -10 12
5 24 16 12 17 15 4 15 -9 0 -18 9 -21 20 -3 11 -2 18 3 15 20 -12 44 150 28
187 -6 12 -3 15 12 11 21 -6 29 20 10 32 -5 3 -10 19 -10 36 0 16 5 29 10 29
6 0 10 5 10 11 0 6 -6 9 -12 6 -7 -2 -21 2 -30 11 -21 18 -24 2 -7 -31 12 -22
12 -22 -9 -4 -11 11 -24 37 -27 59 -5 28 -11 38 -21 34 -16 -6 -19 10 -4 19 6
3 10 13 10 21 0 20 -38 56 -53 49 -7 -4 3 7 21 24 17 17 32 37 32 45 0 8 7 22
16 30 40 41 -10 85 -58 52 -26 -18 -68 -21 -68 -5 0 25 22 50 40 44 12 -4 23
1 32 14 15 22 30 17 42 -14 7 -16 9 -17 14 -5 3 8 12 20 19 25 8 6 13 15 11
21 -4 12 50 64 66 64 6 0 0 -9 -14 -20 -27 -21 -12 -27 21 -9 16 8 19 17 14
42 -6 26 -5 30 6 20 7 -7 21 -13 31 -13 10 0 27 -9 38 -20 16 -16 20 -17 20
-4 0 11 6 14 21 9 18 -6 19 -5 8 13 -7 12 -21 23 -31 25 -10 3 -18 12 -18 21
0 9 -5 16 -11 16 -6 0 -9 -9 -6 -19 3 -14 1 -18 -9 -14 -8 3 -14 10 -14 15 0
6 -7 8 -15 4 -9 -3 -15 0 -15 8 0 7 -9 21 -19 30 -26 24 -20 52 10 48 18 -1
21 0 9 7 -12 8 -12 12 3 29 19 20 23 37 7 27 -5 -3 -17 -2 -25 3 -13 7 -12 10
10 20 26 12 32 26 15 37 -15 10 -12 45 5 51 8 4 21 1 29 -5 13 -11 22 0 42 54
6 18 8 18 11 3 4 -14 8 -16 24 -8 23 13 26 32 3 23 -13 -5 -15 -2 -9 15 5 18
1 24 -22 33 -15 5 -35 8 -45 6 -11 -3 -24 3 -33 16 l-15 22 -6 -22 c-8 -31
-26 -29 -20 1 2 14 -1 32 -8 41 -11 16 -14 16 -28 1 -15 -14 -16 -12 -11 24 6
44 -8 70 -38 70 -21 0 -27 36 -7 42 9 3 9 6 0 12 -7 4 -12 2 -12 -3 0 -19 -30
-12 -31 7 0 14 -2 14 -8 -3 -7 -17 -9 -16 -13 10 -4 17 -2 33 4 36 5 3 9 12 8
20 -4 28 0 49 11 49 6 0 16 6 24 13 11 11 8 14 -17 14 -18 0 -36 7 -43 17 -8
10 -16 13 -19 7 -4 -5 3 -15 14 -21 33 -18 25 -40 -15 -40 -19 0 -35 5 -35 10
0 6 5 10 12 10 9 0 9 3 1 11 -14 14 -55 -10 -48 -28 2 -7 -2 -13 -9 -13 -8 0
-16 -9 -19 -20 -3 -11 -10 -20 -16 -20 -11 0 -16 19 -12 54 1 14 -4 17 -19 13
-14 -3 -20 -1 -17 6 2 7 15 11 28 10 23 -2 23 -2 -2 8 -30 11 -52 52 -44 80 5
15 -18 39 -38 39 -12 0 -17 -54 -7 -60 7 -4 14 -31 16 -59 3 -40 1 -51 -11
-51 -9 0 -12 6 -9 15 4 10 -3 18 -20 25 -15 5 -30 20 -35 33 -5 13 -17 31 -26
41 -10 10 -14 23 -10 34 6 16 7 16 16 0 6 -10 20 -18 32 -18 13 0 17 3 11 8
-6 4 -19 28 -28 54 -13 33 -22 45 -33 41 -8 -3 -12 -11 -9 -18 2 -7 -2 -24 -9
-39 -14 -26 -10 -55 8 -67 13 -9 -2 -49 -19 -49 -14 0 -15 -25 -1 -47 10 -16
47 -17 47 -2 0 8 5 7 15 -1 12 -10 13 -15 4 -20 -6 -4 -9 -13 -5 -19 4 -6 -4
-9 -23 -8 -16 1 -27 5 -24 10 9 14 -8 28 -22 17 -9 -8 -14 -6 -19 5 -8 22 -36
18 -36 -5 0 -11 -4 -20 -10 -20 -5 0 -10 -9 -10 -20 0 -16 5 -19 29 -14 17 4
32 1 36 -6 10 -16 -3 -26 -17 -12 -20 20 -28 13 -21 -19 6 -30 5 -31 -23 -25
-22 5 -35 1 -51 -13 -21 -20 -21 -20 -27 2 -3 12 0 25 7 30 7 5 2 6 -15 3 -20
-5 -28 -2 -31 11 -4 15 -6 15 -12 -4 -4 -13 -12 -23 -18 -23 -6 0 -18 -6 -26
-14 -14 -13 -19 -12 -40 5 -13 11 -21 23 -17 26 4 4 11 1 16 -7 5 -8 13 -11
17 -6 4 4 -2 16 -14 26 -13 10 -23 28 -23 40 0 15 -5 20 -14 17 -9 -4 -13 2
-12 19 1 13 -2 24 -6 24 -5 0 -13 0 -19 0 -6 0 -8 -9 -4 -21 6 -18 5 -19 -13
-10 -20 11 -20 10 -6 -16 7 -16 14 -36 14 -46 0 -10 8 -32 17 -50 23 -44 29
-101 10 -94 -8 3 -19 1 -25 -5 -8 -8 -13 -3 -18 17 -4 18 -2 30 7 37 11 8 10
8 -4 4 -10 -3 -23 -6 -28 -6 -5 0 -9 -18 -9 -40 0 -27 4 -40 14 -40 7 0 16 -9
19 -20 3 -11 13 -23 24 -26 29 -11 53 -36 53 -56 0 -10 6 -27 12 -38 10 -16
10 -23 -4 -36 -15 -15 -17 -15 -34 5 -10 11 -24 21 -30 21 -7 0 -15 13 -19 29
-3 16 -13 32 -21 35 -11 4 -14 -5 -14 -45 0 -31 4 -48 10 -44 6 3 10 2 10 -3
0 -6 -7 -12 -15 -16 -11 -4 -15 -22 -15 -71 0 -42 -4 -64 -10 -60 -5 3 -10 21
-10 39 0 39 -17 95 -36 117 -20 22 -17 47 6 61 20 13 25 43 14 86 -11 40 -24
23 -17 -23 5 -38 3 -45 -11 -45 -9 0 -16 -5 -16 -11 0 -8 -4 -8 -15 1 -11 9
-12 17 -5 30 6 10 10 34 10 52 -1 31 -1 32 -15 13 -8 -11 -19 -26 -25 -33 -9
-9 -6 -30 10 -81 20 -67 19 -101 -4 -101 -8 0 -11 -11 -8 -32 3 -26 2 -31 -8
-21 -7 6 -14 23 -15 37 -4 30 -27 86 -36 86 -4 0 -9 9 -12 21 -6 23 -27 17
-27 -7 0 -18 -20 -18 -47 1 -13 9 -20 22 -17 30 4 8 1 15 -5 15 -6 0 -11 -8
-11 -17 0 -30 -54 32 -56 65 -1 16 -7 40 -14 53 l-13 24 22 -20 c13 -11 29
-34 36 -52 14 -33 29 -42 40 -24 3 5 1 12 -5 16 -5 3 -10 13 -10 21 0 12 6 11
29 -5 16 -12 34 -21 39 -21 21 0 42 31 36 54 -4 17 0 25 12 30 15 6 12 10 -17
24 -19 10 -37 17 -41 15 -12 -6 -9 -41 4 -45 6 -2 9 -12 5 -21 -6 -16 -8 -16
-25 0 -10 10 -16 23 -12 28 4 6 7 21 5 35 -1 19 -8 26 -28 28 -30 4 -35 -11
-12 -34 18 -19 20 -57 3 -52 -7 3 -15 15 -16 29 -2 13 -10 32 -18 43 -8 11
-14 31 -14 43 0 13 -5 23 -10 23 -7 0 -9 -16 -6 -40 5 -45 -7 -51 -35 -17 -25
30 -24 56 4 67 12 5 16 9 9 9 -14 1 -7 21 7 21 13 0 51 -36 51 -49 0 -17 20
-13 27 7 10 25 29 42 49 42 14 0 15 3 6 12 -10 10 -18 9 -40 -4 -31 -19 -38
-16 -70 26 -28 36 -28 46 1 47 l22 0 -22 9 c-25 10 -31 40 -9 40 8 0 16 9 18
19 3 17 5 18 22 6 15 -11 16 -17 7 -29 -9 -11 -7 -22 10 -50 26 -44 44 -47 36
-6 -5 22 -3 30 8 30 8 0 15 7 15 15 0 24 27 17 65 -16 28 -25 33 -34 24 -45
-10 -12 -9 -13 5 -8 9 3 15 13 14 22 -6 29 20 23 27 -8 4 -16 10 -28 15 -25 5
3 11 -1 14 -7 3 -7 4 -1 1 15 -4 19 -1 27 9 27 8 0 16 -7 18 -17 3 -14 4 -14
16 -1 10 12 8 20 -12 41 -19 21 -24 34 -20 62 2 20 0 35 -6 35 -6 0 -15 10
-20 23 l-9 22 -7 -22 c-5 -18 -10 -21 -24 -13 -25 13 -30 13 -30 -5 0 -8 9
-15 19 -15 13 0 23 -11 31 -36 12 -35 6 -60 -9 -36 -5 8 -17 11 -33 7 -31 -8
-42 6 -40 51 1 18 -3 36 -8 39 -6 3 -10 -1 -10 -11 0 -14 -3 -14 -15 -4 -9 7
-13 15 -11 17 2 3 0 18 -6 34 -7 21 -16 29 -35 29 -20 0 -23 4 -18 20 4 12 2
27 -4 34 -6 7 -12 32 -14 55 -3 52 -22 54 -22 2 0 -22 -3 -43 -7 -47 -4 -4 -2
-14 4 -22 18 -22 20 -52 3 -59 -20 -7 -26 -1 -29 29 -8 63 -19 98 -32 98 -21
0 -28 -22 -11 -35 21 -15 22 -25 3 -25 -8 0 -16 7 -20 15 -3 8 -12 15 -21 15
-8 0 -15 4 -15 9 0 16 31 41 51 41 31 0 35 44 9 95 -20 40 -25 43 -51 38 -18
-3 -29 -1 -30 6 -3 26 -4 30 -11 37 -14 14 -9 46 6 41 8 -3 20 1 26 9 17 19
40 18 40 -3 0 -16 89 -103 104 -103 12 0 5 28 -9 40 -8 7 -12 16 -9 21 4 7 -4
49 -23 113 -5 17 -1 18 26 13 24 -5 33 -3 38 10 6 14 7 14 19 -2 8 -11 26 -17
48 -17 29 0 36 -4 36 -20 0 -20 9 -21 53 -3 13 6 18 1 23 -24 6 -29 8 -30 20
-14 12 16 13 14 14 -17 0 -44 12 -63 33 -54 22 8 22 29 0 52 -20 20 -45 82
-34 82 4 0 12 -5 19 -12 9 -9 12 -8 12 5 0 9 -6 17 -13 17 -21 0 -63 52 -63
77 0 22 1 22 24 -5 22 -26 23 -26 17 -4 -6 19 -4 23 12 20 10 -2 19 -9 19 -16
1 -6 2 -16 3 -22 0 -5 11 -10 24 -10 13 0 28 -5 35 -12 16 -16 15 3 -2 25 -7
9 -20 17 -29 17 -10 0 -14 6 -11 14 3 8 -3 19 -16 26 -11 6 -18 15 -15 21 4 5
12 4 20 -3 43 -39 70 -53 46 -25 -8 11 -6 18 8 31 11 10 17 25 14 34 -4 10 -2
13 5 8 16 -9 15 -39 0 -55 -11 -11 -10 -13 3 -8 11 3 15 -1 14 -14 -1 -10 -4
-21 -7 -25 -4 -3 -4 -12 -2 -19 8 -19 44 -6 44 16 0 20 15 26 25 9 11 -17 22
-11 27 14 4 18 1 22 -12 19 -19 -5 -20 10 -6 60 7 22 11 25 22 16 18 -15 18
-29 -1 -29 -8 0 -15 -6 -15 -14 0 -9 7 -12 19 -9 25 6 35 -11 21 -37 -7 -13
-7 -20 0 -20 5 0 10 5 10 10 0 6 5 10 10 10 6 0 10 -7 10 -16 0 -14 3 -14 15
-4 8 7 15 21 15 31 0 9 6 24 13 31 8 7 12 19 9 26 -5 17 15 15 21 -2 3 -7 1
-18 -5 -24 -13 -13 0 -35 17 -28 16 6 8 -32 -12 -56 -12 -13 -12 -20 -1 -37 7
-12 18 -21 24 -21 7 0 15 -7 18 -16 3 -8 10 -13 15 -9 5 3 12 1 16 -5 3 -5 -1
-10 -10 -10 -11 0 -15 -7 -13 -22 2 -13 10 -23 18 -23 11 0 15 11 15 38 0 34
2 37 22 32 12 -3 28 1 37 10 8 8 22 12 30 9 10 -4 18 0 22 10 3 9 12 16 19 16
7 0 18 7 25 15 14 17 80 21 80 5 0 -5 -3 -9 -7 -8 -5 1 -22 -1 -40 -5 -27 -5
-34 -13 -43 -49 -11 -38 -10 -44 8 -58 14 -12 18 -24 14 -48 -4 -33 -33 -47
-30 -14 2 24 -13 82 -22 82 -15 0 -19 -14 -9 -26 9 -10 7 -15 -4 -20 -27 -10
-28 -31 -1 -26 17 3 24 0 24 -12 0 -9 -5 -16 -11 -16 -7 0 -9 -9 -6 -21 5 -18
2 -20 -18 -17 -13 3 -23 2 -23 -1 1 -3 -2 -16 -6 -29 -9 -28 -9 -28 27 -37 23
-6 27 -4 27 13 0 12 5 24 10 27 6 4 10 -8 10 -28 0 -27 5 -36 23 -41 l22 -7
-22 -16 c-13 -8 -23 -24 -23 -34 0 -17 3 -18 20 -7 11 7 20 18 20 24 0 7 8 10
19 7 18 -4 31 -29 35 -62 0 -8 6 -16 12 -18 7 -2 10 17 8 54 -1 32 -3 68 -3
81 -1 12 -6 22 -11 22 -6 0 -15 -10 -20 -22 -8 -22 -9 -22 -11 -3 -1 11 -1 29
0 40 1 11 -6 26 -16 34 -16 12 -15 13 10 7 20 -5 27 -3 27 9 0 8 -4 15 -10 15
-14 0 -13 67 1 72 6 2 12 16 12 31 0 15 3 30 8 33 5 3 9 14 9 25 0 10 4 19 10
19 5 0 7 -7 3 -16 -4 -12 -1 -15 12 -12 11 2 22 16 27 36 9 33 21 41 34 21 4
-7 -1 -16 -10 -21 -9 -5 -14 -13 -11 -19 4 -5 2 -9 -3 -9 -5 0 -12 -11 -14
-25 -5 -22 -2 -25 14 -19 16 5 19 2 16 -18 -2 -18 1 -22 15 -20 10 2 30 -4 44
-13 29 -19 37 -14 38 23 0 19 6 28 20 31 11 2 23 8 27 15 5 8 12 8 24 1 20
-13 16 -31 -7 -28 -11 2 -15 -7 -16 -32 -1 -47 9 -50 45 -17 16 15 34 26 40
24 16 -5 23 29 10 46 -11 13 -10 13 12 -1 19 -12 35 -14 70 -7 25 4 46 7 47 6
1 -1 -1 -15 -6 -31 -7 -28 -8 -28 -13 -7 -7 25 -42 30 -70 8 -14 -10 -15 -15
-5 -25 8 -8 8 -14 2 -19 -12 -9 -18 -55 -6 -48 13 9 20 -31 8 -43 -6 -6 -21
-11 -34 -11 -31 0 -29 -16 3 -23 30 -5 54 15 54 47 0 17 6 22 28 21 25 0 27
-3 24 -37 -3 -33 -1 -36 17 -31 14 3 23 0 27 -11 3 -9 12 -16 19 -16 12 0 38
-48 34 -66 -1 -5 -1 -21 0 -36 1 -23 6 -28 27 -28 17 0 28 -6 31 -19 3 -11 13
-21 24 -24 10 -3 16 -1 13 4 -7 12 5 49 17 49 5 0 9 -7 9 -15 0 -8 6 -15 14
-15 24 0 29 -20 10 -35 -11 -7 -16 -17 -12 -21 8 -7 -39 -36 -51 -31 -10 6
-40 -30 -33 -39 4 -3 -3 -1 -16 5 -18 10 -23 9 -28 -4 -4 -9 0 -23 8 -33 9 -9
18 -29 22 -44 5 -21 10 -25 28 -20 28 7 48 26 48 45 0 18 24 39 33 30 4 -3 7
1 7 9 0 22 26 42 35 28 4 -7 20 -10 36 -8 23 4 29 1 29 -13 0 -12 -9 -19 -27
-22 l-28 -4 28 -2 c15 0 27 -6 27 -12 0 -16 -42 -48 -62 -49 -10 0 -18 -4 -18
-10 0 -5 -7 -7 -15 -4 -13 5 -20 -10 -17 -38 1 -3 -5 -9 -13 -12 -9 -3 -15 0
-15 8 0 26 -29 25 -50 -1 l-20 -26 0 27 c0 14 -4 26 -10 26 -5 0 -10 7 -10 15
0 24 -35 23 -89 -2 -18 -8 -30 -18 -25 -22 13 -9 14 -41 2 -41 -6 0 -8 -7 -5
-15 4 -8 2 -17 -3 -20 -5 -3 -8 -15 -7 -26 1 -18 6 -20 37 -14 19 4 37 11 38
16 2 5 11 9 20 8 11 0 12 -2 5 -6 -20 -7 -15 -35 10 -65 21 -24 24 -25 35 -10
11 16 12 16 23 -1 10 -18 11 -18 24 0 12 16 14 16 20 2 5 -14 10 -13 36 10 34
30 38 45 9 36 -11 -4 -20 -2 -20 4 0 6 5 11 11 11 8 0 7 5 -2 16 -10 13 -10
17 2 25 9 6 18 4 25 -6 14 -18 27 -20 21 -2 -2 6 0 20 5 30 6 12 5 23 -3 33
-9 11 -8 14 4 14 9 0 30 14 48 31 30 29 67 36 61 11 -1 -7 9 -12 23 -12 27 0
32 -9 14 -27 -7 -7 -7 -13 -1 -17 5 -3 15 0 21 8 12 14 51 10 51 -5 0 -11 50
-12 50 -1 0 4 7 16 15 26 12 15 17 17 29 7 9 -7 27 -10 43 -7 15 3 34 2 42 -3
12 -8 12 -13 -3 -35 -16 -25 -21 -26 -66 -20 -41 5 -51 4 -56 -10 -3 -9 -17
-16 -30 -16 -13 0 -24 -5 -24 -12 0 -6 -6 -19 -14 -27 -8 -9 -16 -34 -18 -56
-3 -37 -1 -40 22 -40 14 0 31 -4 38 -8 7 -5 14 -2 18 7 3 9 15 16 25 16 10 0
19 5 19 10 0 6 9 10 21 10 15 0 19 -4 15 -15 -3 -8 -9 -21 -12 -29 -6 -15 17
-28 33 -18 14 9 28 92 15 92 -16 0 -23 30 -11 52 8 15 17 18 37 13 41 -10 49
-23 21 -34 -23 -9 -23 -10 -3 -10 26 -1 35 -19 43 -85 6 -52 28 -73 38 -37 7
27 63 31 63 4 0 -9 3 -13 7 -10 3 4 12 2 20 -4 15 -13 43 4 43 28 0 8 5 11 10
8 6 -3 10 -15 10 -25 0 -10 4 -21 9 -24 7 -5 8 57 2 83 -1 2 -7 -2 -15 -8 -10
-9 -16 -9 -21 -1 -4 6 -13 9 -21 6 -8 -3 -14 -1 -14 3 0 5 -7 12 -16 15 -11 4
-18 -1 -21 -14 -9 -32 -23 -23 -23 15 0 28 4 35 20 35 11 0 20 7 20 16 0 20
19 8 30 -20 l9 -21 0 23 c1 12 6 22 11 22 6 0 10 7 10 15 0 8 -6 15 -12 15 -7
0 -23 3 -34 6 -16 4 -23 0 -27 -15 -3 -14 -10 -19 -20 -15 -9 3 -27 -2 -41
-11 -14 -9 -30 -14 -37 -10 -7 5 1 13 20 22 17 9 31 21 31 28 0 6 11 18 25 25
14 7 25 17 25 22 0 5 -6 6 -12 2 -18 -11 -48 -12 -48 -2 0 5 -4 7 -9 3 -5 -3
-12 -1 -15 4 -10 16 32 23 67 12 49 -15 106 -12 117 8 7 11 9 12 10 2 0 -7 6
-11 14 -8 8 3 17 1 20 -6 2 -7 5 -7 5 -2 1 18 -38 57 -50 49 -6 -3 -16 0 -21
7 -7 10 -8 8 -5 -9 3 -13 3 -21 0 -18 -4 3 -12 1 -20 -6 -17 -14 -31 -2 -15
14 7 7 12 17 12 24 0 17 -30 26 -45 14 -9 -8 -14 -6 -19 5 -3 9 0 15 8 15 18
0 49 37 41 49 -3 6 0 11 8 11 26 0 29 43 6 63 -12 9 -16 17 -10 17 6 0 11 9
11 20 0 23 -20 26 -53 8 -20 -10 -21 -10 -8 5 7 10 18 17 24 17 10 0 23 10 71
57 17 17 25 20 34 11 9 -9 12 -9 12 0 0 7 7 12 15 12 7 0 18 8 24 17 11 21 17
17 26 -18 5 -19 0 -31 -18 -50 -24 -24 -42 -69 -27 -69 4 0 10 9 13 21 10 37
27 10 25 -42 -1 -44 -4 -52 -29 -65 -17 -8 -29 -10 -29 -4 0 5 -4 10 -10 10
-11 0 -14 -53 -4 -63 11 -11 34 5 34 23 0 12 11 20 35 24 19 4 35 12 35 18 0
5 6 8 13 5 7 -3 19 4 26 15 11 17 11 20 -1 16 -7 -3 -19 1 -26 8 -10 11 -10
14 1 14 12 0 26 27 27 52 0 3 -14 9 -31 13 -23 5 -28 10 -20 18 9 9 14 8 20
-2 15 -24 29 -2 24 38 -3 24 -1 41 7 46 8 5 11 -2 9 -26 -1 -19 -1 -43 0 -53
1 -19 1 -19 15 -1 10 14 11 26 5 43 -6 16 -5 30 5 44 l14 20 11 -20 c6 -12 8
-40 4 -69 -6 -45 -5 -47 12 -33 10 8 25 15 34 15 14 0 16 27 18 238 2 132 -1
236 -6 233 -4 -3 -6 -16 -4 -28 4 -21 1 -23 -43 -24 -26 -1 -50 -8 -55 -15 -6
-11 -9 -10 -15 4 -3 9 0 25 7 34 8 9 14 19 14 22 0 3 3 5 8 3 4 -1 11 8 16 21
9 23 41 56 41 42 0 -5 9 0 19 9 22 20 28 111 9 134 -8 9 -8 16 0 24 13 13 16
58 4 58 -4 0 -13 -5 -19 -11 -7 -7 -19 -3 -41 15 -16 14 -34 26 -40 26 -5 0
-12 7 -16 15 -3 8 -17 15 -30 15 -14 0 -29 8 -35 17 -7 13 -12 14 -23 6 -18
-15 -114 -50 -158 -57 -52 -9 -68 8 -76 79 -3 33 -17 84 -30 113 l-25 52 -264
0 c-170 0 -265 -4 -265 -10 0 -5 -5 -10 -11 -10 -5 0 -7 5 -4 10 4 6 -34 10
-107 9 -62 0 -108 -3 -101 -5 8 -4 7 -11 -5 -23 -9 -10 -21 -16 -25 -14 -4 3
-14 -1 -22 -7 -11 -9 -15 -9 -15 -1 0 6 9 16 20 23 11 7 20 16 20 20 0 5 -53
8 -119 8 l-118 0 5 -25 c2 -14 9 -25 14 -25 7 0 7 -4 0 -12 -20 -24 -98 -10
-89 15 2 7 -3 17 -12 24 -14 11 -13 12 10 13 33 0 42 -9 26 -28 -10 -13 -9
-14 3 -10 8 2 16 14 18 26 l3 22 -434 0 c-240 0 -442 2 -449 5 -8 3 -17 3 -20
0z m1082 -25 c0 -5 -2 -10 -4 -10 -3 0 -8 5 -11 10 -3 6 -1 10 4 10 6 0 11 -4
11 -10z m283 3 c11 -10 -13 -32 -29 -26 -20 8 -17 33 4 33 10 0 22 -3 25 -7z
m83 -18 c-1 -29 -16 -35 -16 -7 0 16 8 32 16 32 1 0 1 -11 0 -25z m234 11 c0
-3 -4 -8 -10 -11 -5 -3 -10 -1 -10 4 0 6 5 11 10 11 6 0 10 -2 10 -4z m-395
-15 c3 -5 1 -12 -5 -16 -5 -3 -10 1 -10 9 0 18 6 21 15 7z m395 -46 c0 -8 -4
-15 -10 -15 -5 0 -7 7 -4 15 4 8 8 15 10 15 2 0 4 -7 4 -15z m260 -14 c0 -27
-11 -32 -39 -16 -23 12 -23 13 -5 23 29 17 44 14 44 -7z m-1016 -53 c3 -16 3
-28 -1 -28 -12 0 -33 51 -27 62 8 13 20 -2 28 -34z m966 -3 c0 -7 -6 -18 -13
-24 -11 -9 -14 -4 -15 25 -1 31 1 34 13 24 8 -7 15 -18 15 -25z m-720 -16 c0
-44 -14 -45 -24 -3 -6 23 4 43 22 44 1 0 2 -18 2 -41z m-316 22 c3 -5 -3 -11
-14 -14 -20 -5 -26 3 -13 16 9 10 21 9 27 -2z m236 -1 c0 -5 -5 -10 -11 -10
-5 0 -7 5 -4 10 3 6 8 10 11 10 2 0 4 -4 4 -10z m858 -2 c7 -7 12 -18 12 -25
0 -18 -35 -16 -51 3 -10 13 -10 17 2 25 19 12 23 11 37 -3z m-1152 -35 c-7 -7
-26 7 -26 19 0 6 6 6 15 -2 9 -7 13 -15 11 -17z m497 -35 c-9 -18 -18 -6 -17
22 2 45 6 48 13 15 4 -16 6 -33 4 -37z m-896 -20 c-1 -23 -7 -43 -14 -45 -9
-3 -11 10 -9 44 4 58 4 56 16 48 5 -3 9 -25 7 -47z m98 34 c-3 -3 -11 0 -18 7
-9 10 -8 11 6 5 10 -3 15 -9 12 -12z m303 -24 c2 -9 -6 -18 -18 -21 -21 -5
-24 1 -14 28 8 19 28 15 32 -7z m-268 -43 c0 -47 -17 -53 -23 -7 -5 41 -1 55
14 47 5 -4 9 -21 9 -40z m1665 10 c0 -28 -10 -33 -19 -9 -9 24 -7 34 7 34 6 0
12 -11 12 -25z m-1515 -6 c0 -5 7 -9 15 -9 8 0 15 -3 15 -6 0 -7 -30 -38 -33
-33 -1 2 -10 18 -20 36 -17 30 -17 31 3 26 11 -3 20 -9 20 -14z m156 -14 c1
-16 6 -31 13 -33 12 -4 16 -32 4 -32 -14 1 -39 24 -46 43 -9 23 -23 22 -30 -3
-6 -22 -27 -28 -27 -7 1 17 26 48 33 40 4 -3 9 2 13 11 11 28 39 14 40 -19z
m121 3 c-3 -7 -5 -2 -5 12 0 14 2 19 5 13 2 -7 2 -19 0 -25z m-662 -8 c4 -16
13 -30 20 -30 8 0 17 -5 21 -12 5 -8 2 -9 -10 -5 -15 6 -17 4 -10 -10 4 -10 9
-37 12 -60 3 -35 8 -43 24 -43 10 0 16 -4 13 -10 -3 -5 1 -10 9 -10 10 0 16
-9 16 -21 0 -17 -4 -20 -22 -15 -13 3 -26 6 -30 6 -4 0 -10 21 -14 48 -7 49
-20 75 -34 67 -10 -6 -22 24 -14 36 3 5 0 9 -5 9 -6 0 -11 -7 -11 -16 0 -12
-7 -15 -24 -12 -17 4 -23 1 -19 -9 3 -8 -3 -13 -18 -13 l-23 0 26 28 c14 15
23 33 21 40 -3 6 0 12 6 12 6 0 11 8 11 18 0 44 46 45 55 2z m631 -2 c8 -12
-16 -39 -28 -32 -5 3 -7 12 -4 19 2 7 0 17 -6 23 -8 8 -5 9 11 5 12 -3 24 -10
27 -15z m272 3 c3 -8 -1 -12 -9 -9 -7 2 -15 10 -17 17 -3 8 1 12 9 9 7 -2 15
-10 17 -17z m-748 -11 c0 -11 -2 -20 -5 -20 -2 0 -9 9 -15 20 -9 16 -8 20 5
20 8 0 15 -9 15 -20z m850 6 c0 -3 -4 -8 -10 -11 -5 -3 -10 -1 -10 4 0 6 5 11
10 11 6 0 10 -2 10 -4z m-1124 -53 c-7 -7 -26 7 -26 19 0 6 6 6 15 -2 9 -7 13
-15 11 -17z m775 -19 c10 -28 5 -44 -10 -28 -5 5 -12 19 -16 32 -9 32 13 28
26 -4z m-934 -29 c-3 -14 56 -15 65 -1 5 7 12 5 21 -8 8 -11 19 -16 25 -12 6
3 14 1 17 -5 4 -6 -2 -13 -14 -16 -12 -3 -21 -9 -21 -14 0 -14 28 -11 34 4 5
9 7 9 12 -1 5 -10 9 -10 20 -1 8 7 14 7 14 1 0 -16 -33 -39 -37 -26 -5 16 -43
5 -43 -12 0 -8 -10 -12 -29 -11 -18 1 -27 7 -24 15 6 15 -2 15 -28 2 -15 -8
-19 -7 -19 5 0 8 5 15 10 15 6 0 10 5 10 10 0 6 -10 10 -22 10 -19 0 -20 2 -8
10 13 8 12 10 -4 10 -12 0 -16 5 -13 14 3 8 -1 20 -9 26 -25 22 -15 30 15 12
16 -9 29 -21 28 -27z m773 41 c0 -3 -4 -8 -10 -11 -5 -3 -10 -1 -10 4 0 6 5
11 10 11 6 0 10 -2 10 -4z m-527 -57 c-4 -15 -9 -17 -17 -9 -8 8 -7 13 4 20 8
5 16 10 17 10 0 0 -1 -9 -4 -21z m-48 -12 c13 -3 9 -5 -12 -6 -31 -1 -41 8
-26 22 4 4 9 3 12 -2 3 -5 15 -11 26 -14z m590 -18 c12 -19 -3 -22 -27 -5
l-22 16 21 0 c12 0 25 -5 28 -11z m-825 -15 c0 -2 -9 -4 -21 -4 -11 0 -18 4
-14 10 5 8 35 3 35 -6z m487 -6 c-3 -8 -6 -5 -6 6 -1 11 2 17 5 13 3 -3 4 -12
1 -19z m443 12 c0 -5 -4 -10 -10 -10 -5 0 -10 5 -10 10 0 6 5 10 10 10 6 0 10
-4 10 -10z m-650 -9 c0 -6 -4 -13 -10 -16 -5 -3 -10 1 -10 9 0 9 5 16 10 16 6
0 10 -4 10 -9z m-303 -41 c12 0 13 -3 4 -13 -6 -8 -8 -17 -5 -20 4 -4 -5 -11
-20 -17 -38 -14 -42 -13 -21 10 16 18 16 20 2 20 -21 0 -21 6 1 28 12 13 18
14 20 5 2 -7 10 -13 19 -13z m743 10 c0 -5 -4 -10 -10 -10 -5 0 -10 5 -10 10
0 6 5 10 10 10 6 0 10 -4 10 -10z m1570 -62 c0 -39 -14 -66 -24 -49 -4 6 -2
11 5 11 7 0 9 11 5 35 -4 22 -3 35 4 35 5 0 10 -15 10 -32z m-1030 12 c0 -5
-4 -10 -10 -10 -5 0 -10 5 -10 10 0 6 5 10 10 10 6 0 10 -4 10 -10z m-1240
-11 c0 -6 -9 -13 -20 -16 -11 -3 -20 -14 -20 -24 0 -12 -7 -19 -20 -19 -25 0
-27 28 -2 37 9 4 23 13 30 20 16 16 32 17 32 2z m607 -13 c-2 -6 -12 -10 -21
-8 -14 3 -16 0 -7 -17 17 -31 13 -41 -14 -41 -16 0 -25 6 -25 15 0 8 4 15 9
15 5 0 12 13 16 29 5 23 10 28 26 24 11 -3 18 -11 16 -17z m183 8 c0 -2 -12
-4 -26 -4 -14 0 -23 4 -20 9 6 8 46 4 46 -5z m50 2 c0 -3 -4 -8 -10 -11 -5 -3
-10 -1 -10 4 0 6 5 11 10 11 6 0 10 -2 10 -4z m1463 -43 c-9 -23 -20 -4 -15
24 5 24 6 25 12 8 4 -11 5 -26 3 -32z m-163 13 c0 -8 -4 -18 -10 -21 -5 -3
-10 3 -10 14 0 12 5 21 10 21 6 0 10 -6 10 -14z m-2130 0 c0 -3 -4 -8 -10 -11
-5 -3 -10 -1 -10 4 0 6 5 11 10 11 6 0 10 -2 10 -4z m-235 -16 c3 -5 1 -10 -4
-10 -6 0 -11 5 -11 10 0 6 2 10 4 10 3 0 8 -4 11 -10z m-30 -10 c3 -5 -1 -10
-9 -10 -9 0 -16 5 -16 10 0 6 4 10 9 10 6 0 13 -4 16 -10z m267 -22 c-7 -7
-12 -8 -12 -2 0 14 12 26 19 19 2 -3 -1 -11 -7 -17z m2176 -34 c9 -7 14 -15
11 -19 -4 -3 -14 1 -23 10 -10 10 -24 14 -36 10 -11 -4 -20 -2 -20 4 0 6 7 11
16 11 10 0 14 6 11 14 -3 8 -3 17 1 20 3 4 10 -3 14 -15 5 -12 16 -28 26 -35z
m185 28 c2 7 8 10 12 5 5 -4 2 -19 -5 -33 l-14 -26 -18 22 c-20 24 -14 48 7
30 10 -8 14 -7 18 2z m-1647 -29 c-10 -10 -19 5 -10 18 6 11 8 11 12 0 2 -7 1
-15 -2 -18z m134 17 c0 -5 -2 -10 -4 -10 -3 0 -8 5 -11 10 -3 6 -1 10 4 10 6
0 11 -4 11 -10z m1446 -2 c14 -20 11 -43 -9 -62 -16 -17 -22 -13 -17 9 1 6 2
22 2 38 -1 29 10 35 24 15z m-2289 -25 c-3 -3 -11 -2 -17 2 -9 6 -9 10 1 16
14 8 27 -7 16 -18z m1267 12 c3 -8 1 -15 -4 -15 -6 0 -10 7 -10 15 0 8 2 15 4
15 2 0 6 -7 10 -15z m-1504 1 c0 -2 3 -12 6 -21 6 -15 4 -15 -15 -4 -25 16
-27 29 -6 29 8 0 15 -2 15 -4z m2476 -24 c-4 -3 -14 2 -24 12 -16 18 -16 18 6
6 13 -6 21 -14 18 -18z m-2616 -9 c0 -8 -5 -13 -12 -11 -18 6 -21 25 -3 25 8
0 15 -7 15 -14z m1259 4 c6 -8 8 -17 5 -20 -7 -7 -44 14 -44 25 0 13 27 9 39
-5z m1281 -33 c0 -8 -6 -14 -14 -14 -9 0 -12 7 -9 20 6 22 23 18 23 -6z m40 2
c0 -16 -18 -31 -27 -22 -8 8 5 36 17 36 5 0 10 -6 10 -14z m-223 -12 c9 -8 25
-14 37 -12 29 3 46 -9 46 -36 0 -19 -5 -22 -31 -21 -27 2 -30 -1 -24 -19 7
-23 7 -23 -1 -83 -3 -24 -10 -43 -16 -43 -6 0 -7 13 -3 31 7 32 -4 66 -34 101
-7 10 -15 31 -16 48 -2 25 0 29 11 19 19 -16 30 -3 14 16 -16 20 -3 19 17 -1z
m-847 -4 c0 -5 -4 -10 -10 -10 -5 0 -10 5 -10 10 0 6 5 10 10 10 6 0 10 -4 10
-10z m970 -21 c0 -6 -4 -7 -10 -4 -5 3 -10 11 -10 16 0 6 5 7 10 4 6 -3 10
-11 10 -16z m60 1 c0 -5 -5 -10 -11 -10 -5 0 -7 5 -4 10 3 6 8 10 11 10 2 0 4
-4 4 -10z m-2630 -20 c0 -11 -4 -20 -10 -20 -5 0 -10 9 -10 20 0 11 5 20 10
20 6 0 10 -9 10 -20z m2721 5 c1 -5 1 -14 -1 -20 -1 -5 6 -15 15 -21 19 -14
10 -38 -10 -30 -8 3 -17 -4 -20 -15 -4 -10 -10 -19 -15 -19 -5 0 -15 -3 -23
-6 -10 -3 -17 3 -21 21 -4 14 -11 23 -16 20 -12 -8 -13 -45 -1 -45 15 0 19
-36 6 -53 -15 -21 -25 -22 -25 -1 0 8 -4 13 -8 10 -5 -3 -13 17 -18 45 -6 27
-7 49 -2 49 4 0 18 10 29 21 15 15 24 18 29 10 5 -9 10 -8 19 3 8 10 9 16 1
21 -6 3 -8 10 -5 14 7 12 65 8 66 -4z m92 -15 c-6 -22 -23 -38 -23 -21 0 17
12 41 20 41 5 0 6 -9 3 -20z m-1123 -10 c0 -5 -7 -10 -16 -10 -8 0 -12 5 -9
10 3 6 10 10 16 10 5 0 9 -4 9 -10z m475 -40 c3 -5 2 -10 -4 -10 -5 0 -13 5
-16 10 -3 6 -2 10 4 10 5 0 13 -4 16 -10z m387 -12 c2 -13 -4 -36 -12 -52 -12
-22 -12 -30 -2 -33 24 -9 12 -19 -23 -19 -37 0 -40 3 -26 25 6 9 6 22 0 33 -6
12 -6 18 1 18 5 0 11 8 11 18 1 9 5 4 9 -13 l8 -30 1 31 c2 47 27 63 33 22z
m-152 -24 c0 -14 -3 -14 -15 -4 -8 7 -15 14 -15 16 0 2 7 4 15 4 8 0 15 -7 15
-16z m-55 -3 c3 -5 1 -12 -5 -16 -5 -3 -10 1 -10 9 0 18 6 21 15 7z m525 -42
c0 -4 -4 -11 -10 -14 -5 -3 -10 0 -10 9 0 8 -3 23 -6 33 -5 16 -4 16 10 -1 9
-11 16 -23 16 -27z m-2717 14 c-7 -3 -13 -15 -13 -28 0 -12 -7 -28 -15 -35
-10 -9 -15 -9 -15 -1 0 20 -20 11 -32 -14 -11 -24 -34 -25 -25 -1 3 7 1 19 -3
26 -12 19 24 43 51 35 15 -5 25 -1 36 15 8 12 18 18 22 14 3 -4 0 -9 -6 -11z
m55 -22 c3 -16 -1 -22 -10 -19 -7 3 -15 15 -16 27 -3 16 1 22 10 19 7 -3 15
-15 16 -27z m2508 3 c-4 -9 -9 -15 -11 -12 -3 3 -3 13 1 22 4 9 9 15 11 12 3
-3 3 -13 -1 -22z m-2716 -5 c0 -4 -7 -6 -15 -3 -8 4 -15 10 -15 15 0 4 7 6 15
3 8 -4 15 -10 15 -15z m2230 -31 c0 -10 5 -18 10 -18 6 0 10 7 10 15 0 18 14
19 41 5 25 -14 24 -36 -1 -50 -11 -6 -20 -20 -20 -31 0 -11 -4 -17 -10 -14 -5
3 -10 15 -10 26 0 24 -27 25 -52 2 -17 -15 -18 -15 -18 0 0 10 5 17 10 17 7 0
9 17 5 45 -5 43 -4 45 15 33 11 -7 20 -21 20 -30z m-2233 -22 c-4 -9 -13 -13
-21 -10 -12 5 -13 9 -3 25 13 21 33 9 24 -15z m-741 -42 c-4 -12 -10 -14 -17
-7 -5 5 -7 17 -3 27 4 12 10 14 17 7 5 -5 7 -17 3 -27z m879 26 c3 -5 1 -10
-4 -10 -6 0 -11 5 -11 10 0 6 2 10 4 10 3 0 8 -4 11 -10z m1760 -38 c-8 -8
-25 10 -25 26 0 13 2 13 14 -4 8 -10 13 -21 11 -22z m-1845 8 c0 -5 -4 -10
-10 -10 -5 0 -10 5 -10 10 0 6 5 10 10 10 6 0 10 -4 10 -10z m67 -3 c-3 -7 4
-19 14 -25 22 -14 25 -42 5 -42 -8 0 -19 14 -25 31 -14 40 -14 49 0 49 6 0 9
-6 6 -13z m69 -11 c15 -12 17 -17 7 -27 -10 -10 -17 -9 -32 8 -29 31 -11 45
25 19z m-1096 -17 c0 -5 -4 -9 -10 -9 -5 0 -10 7 -10 16 0 8 5 12 10 9 6 -3
10 -10 10 -16z m2876 -5 c-9 -25 11 -24 22 1 13 28 34 32 52 10 16 -19 -3 -45
-31 -45 -11 0 -19 -6 -19 -12 0 -7 -5 -5 -11 5 -5 9 -16 17 -23 17 -9 0 -12 9
-8 25 2 14 9 22 14 19 5 -3 7 -12 4 -20z m211 -5 c-23 -13 -22 -29 3 -29 11 0
20 -4 20 -10 0 -5 8 -10 18 -11 10 0 12 -3 5 -6 -7 -2 -13 -11 -13 -19 0 -8
-4 -14 -10 -14 -5 0 -10 7 -10 15 0 8 -7 15 -15 15 -8 0 -15 6 -15 14 0 8 -14
15 -35 18 -24 3 -35 0 -35 -9 0 -16 -16 -17 -25 -2 -10 16 27 40 53 34 12 -3
22 -1 22 4 0 10 41 20 50 13 3 -2 -3 -8 -13 -13z m-3100 -31 c-3 -8 -6 -5 -6
6 -1 11 2 17 5 13 3 -3 4 -12 1 -19z m2981 -26 c2 -8 -8 -12 -29 -12 -31 0
-32 1 -13 15 21 16 36 15 42 -3z m-2922 -39 c-10 -10 -19 5 -10 18 6 11 8 11
12 0 2 -7 1 -15 -2 -18z m3199 17 c3 5 12 10 18 10 8 0 8 -3 -1 -9 -10 -6 -10
-10 3 -21 19 -16 20 -30 1 -30 -7 0 -21 -10 -29 -22 -13 -18 -18 -20 -25 -9
-6 8 -17 11 -32 6 -16 -5 -21 -4 -18 6 3 8 16 14 29 14 27 0 49 11 49 26 0 5
-6 9 -13 9 -8 0 -14 7 -14 15 0 11 4 12 13 4 8 -7 14 -7 19 1z m-3225 -25 c0
-7 14 -15 30 -18 17 -4 30 -12 30 -18 0 -9 -3 -9 -14 0 -10 9 -16 8 -26 -4
-16 -19 -30 -19 -45 1 -16 22 -8 64 11 57 8 -3 14 -11 14 -18z m3137 -11 c-3
-3 -12 -4 -19 -1 -8 3 -5 6 6 6 11 1 17 -2 13 -5z m-39 -24 c18 -29 7 -42 -23
-28 -24 11 -32 28 -18 41 12 13 28 7 41 -13z m-2183 0 c3 -5 1 -10 -4 -10 -6
0 -11 5 -11 10 0 6 2 10 4 10 3 0 8 -4 11 -10z m2615 0 c0 -5 -4 -10 -10 -10
-5 0 -10 5 -10 10 0 6 5 10 10 10 6 0 10 -4 10 -10z m-3700 -16 c0 -8 -4 -12
-10 -9 -5 3 -10 10 -10 16 0 5 5 9 10 9 6 0 10 -7 10 -16z m90 -14 c0 -11 -2
-20 -4 -20 -2 0 -6 9 -9 20 -3 11 -1 20 4 20 5 0 9 -9 9 -20z m3103 -6 c-7 -3
-13 -12 -13 -20 0 -17 -19 -18 -42 0 -25 19 -23 21 25 23 23 1 36 -1 30 -3z
m-3103 -54 c-12 -8 -12 -10 3 -16 11 -4 17 -15 16 -28 -1 -11 1 -29 6 -39 4
-10 2 -24 -6 -34 -12 -14 -11 -15 9 -9 31 10 27 -6 -5 -22 -17 -7 -31 -8 -36
-3 -5 5 -16 7 -23 4 -9 -3 -14 2 -14 17 0 19 -4 22 -29 17 -24 -5 -28 -3 -24
12 3 11 12 17 21 15 69 -13 78 -12 78 4 1 9 5 25 9 36 7 15 5 17 -13 11 -25
-7 -27 1 -12 41 8 21 13 25 23 15 9 -9 9 -14 -3 -21z m1200 -7 l22 -28 -26 -9
c-14 -6 -26 -15 -26 -20 -1 -12 -35 -56 -44 -56 -3 0 -6 5 -6 11 0 16 -31 38
-52 39 -10 0 -18 7 -18 16 0 15 2 15 26 -1 31 -20 58 -13 51 15 -3 13 1 21 14
25 10 4 19 13 19 21 0 22 16 17 40 -13z m2150 -7 c0 -3 -4 -8 -10 -11 -5 -3
-10 -1 -10 4 0 6 5 11 10 11 6 0 10 -2 10 -4z m-3430 -32 c0 -8 -4 -12 -10 -9
-5 3 -10 10 -10 16 0 5 5 9 10 9 6 0 10 -7 10 -16z m2350 -5 c0 -5 -4 -9 -10
-9 -5 0 -10 7 -10 16 0 8 5 12 10 9 6 -3 10 -10 10 -16z m-140 -4 c0 -8 -4
-15 -9 -15 -5 0 -14 7 -21 15 -10 13 -9 15 9 15 12 0 21 -6 21 -15z m170 -25
c0 -5 -5 -10 -11 -10 -5 0 -7 5 -4 10 3 6 8 10 11 10 2 0 4 -4 4 -10z m946
-38 c-3 -2 -18 -1 -33 4 -26 7 -26 8 -5 11 12 3 22 12 23 21 0 12 3 9 10 -7 5
-13 7 -26 5 -29z m-829 18 c1 -12 -4 -20 -13 -20 -12 0 -12 4 -4 20 6 11 12
20 13 20 2 0 3 -9 4 -20z m-2299 -18 c3 -16 -1 -20 -12 -16 -19 7 -22 48 -3
42 6 -3 13 -14 15 -26z m1894 -34 c-7 -7 -12 -8 -12 -2 0 6 3 14 7 17 3 4 9 5
12 2 2 -3 -1 -11 -7 -17z m-1832 2 c0 -5 -2 -10 -4 -10 -3 0 -8 5 -11 10 -3 6
-1 10 4 10 6 0 11 -4 11 -10z m2980 0 c0 -5 -5 -10 -11 -10 -5 0 -7 5 -4 10 3
6 8 10 11 10 2 0 4 -4 4 -10z m-325 -10 c3 -5 -1 -10 -9 -10 -9 0 -16 5 -16
10 0 6 4 10 9 10 6 0 13 -4 16 -10z m-2710 -11 c11 -17 -1 -21 -15 -4 -8 9 -8
15 -2 15 6 0 14 -5 17 -11z m150 1 c3 -5 1 -10 -4 -10 -6 0 -11 5 -11 10 0 6
2 10 4 10 3 0 8 -4 11 -10z m1699 4 c9 -3 14 -10 11 -15 -7 -10 -35 0 -35 12
0 11 3 11 24 3z m-830 -35 c6 -32 1 -49 -14 -49 -4 0 -6 9 -3 19 3 10 0 28 -6
40 -9 17 -9 21 2 21 8 0 17 -14 21 -31z m604 6 c6 -14 16 -25 22 -25 5 0 10
-6 10 -14 0 -16 -34 -31 -50 -21 -5 3 -10 -2 -11 -12 0 -10 -3 -13 -6 -6 -2 7
2 26 10 43 9 17 11 32 6 36 -11 7 -12 24 -1 24 5 0 14 -11 20 -25z m-649 8 c0
-5 -4 -17 -9 -28 -8 -18 -9 -17 -9 8 -1 15 4 27 9 27 6 0 10 -3 9 -7z m-726
-35 c13 -20 -13 -77 -42 -95 -12 -7 -21 -26 -23 -45 -2 -27 -7 -32 -25 -30
-13 2 -27 -6 -37 -19 -8 -13 -17 -21 -18 -18 -30 47 -42 87 -33 107 12 28 29
23 34 -9 1 -13 8 -27 14 -31 16 -9 37 10 30 28 -3 8 0 14 6 14 6 0 11 12 11
26 0 21 4 24 20 19 16 -5 20 -2 20 19 0 53 21 70 43 34z m1527 -45 c0 -7 -7
-13 -15 -13 -16 0 -19 9 -9 35 5 13 8 14 15 3 5 -7 9 -19 9 -25z m-210 2 c0
-8 -4 -15 -10 -15 -5 0 -10 7 -10 15 0 8 5 15 10 15 6 0 10 -7 10 -15z m-1429
-38 c-8 -8 -11 -3 -11 19 1 25 2 27 11 11 8 -14 8 -22 0 -30z m1557 31 c17
-17 15 -27 -5 -24 -10 2 -19 10 -21 19 -4 20 9 22 26 5z m-1787 -15 c4 -68 3
-96 -7 -104 -7 -6 -10 9 -9 49 1 31 0 49 -3 40 -2 -10 -10 -18 -18 -18 -17 0
-17 5 -2 30 16 25 38 26 39 3z m141 -8 c-11 -15 -19 -19 -24 -11 -14 20 -8 31
17 32 24 2 24 1 7 -21z m1028 -17 c0 -12 -19 -19 -25 -8 -4 6 -10 8 -15 5 -11
-7 -23 12 -16 24 6 10 56 -9 56 -21z m-1076 6 c9 -24 7 -28 -9 -14 -17 14 -20
30 -6 30 5 0 12 -7 15 -16z m1733 -26 c-3 -7 -5 -2 -5 12 0 14 2 19 5 13 2 -7
2 -19 0 -25z m-17 -3 c0 -16 -6 -25 -15 -25 -15 0 -21 31 -8 43 13 14 23 6 23
-18z m823 -3 c9 -8 17 -22 17 -31 -1 -14 -3 -13 -15 2 -14 19 -55 16 -55 -4 0
-6 -4 -8 -9 -5 -14 9 10 53 28 53 9 0 24 -7 34 -15z m-2543 -12 c0 -5 -7 -10
-16 -10 -8 0 -12 5 -9 10 3 6 10 10 16 10 5 0 9 -4 9 -10z m270 -7 c11 -10 20
-24 20 -32 0 -8 7 -23 17 -33 15 -17 15 -18 0 -18 -10 0 -17 -1 -17 -3 0 -1 4
-17 9 -35 8 -25 7 -32 -5 -32 -8 0 -14 6 -14 13 0 6 -7 25 -15 41 -13 24 -13
31 -3 39 9 6 8 7 -4 3 -16 -5 -20 0 -17 22 1 4 5 6 10 5 5 -2 9 2 9 7 0 6 -9
10 -20 10 -20 0 -26 11 -13 23 10 11 21 8 43 -10z m133 -10 c8 -41 -4 -57 -28
-37 -14 11 -16 17 -7 20 6 3 12 14 12 25 0 29 17 23 23 -8z m597 12 c0 -8 -7
-15 -15 -15 -8 0 -15 7 -15 15 0 8 7 15 15 15 8 0 15 -7 15 -15z m-1005 -34
c3 -5 0 -13 -6 -16 -5 -4 -8 -14 -5 -22 5 -11 2 -13 -10 -9 -8 3 -18 6 -20 6
-2 0 -4 11 -4 25 0 18 5 25 19 25 11 0 22 -4 26 -9z m-121 -43 c-3 -5 -12 -4
-20 3 -7 6 -11 15 -8 21 3 5 12 4 20 -3 7 -6 11 -15 8 -21z m-64 12 c0 -5 -2
-10 -4 -10 -3 0 -8 5 -11 10 -3 6 -1 10 4 10 6 0 11 -4 11 -10z m115 -15 c0
-28 -29 -25 -33 3 -3 19 0 23 15 20 10 -2 18 -12 18 -23z m255 -19 c-16 -16
-12 -29 9 -23 12 3 22 -1 25 -9 4 -10 -2 -14 -19 -14 -19 0 -26 7 -33 33 -11
39 -5 52 14 36 10 -8 12 -15 4 -23z m147 -18 c-3 -8 -6 -5 -6 6 -1 11 2 17 5
13 3 -3 4 -12 1 -19z m-357 -55 l-1 -48 -19 24 c-24 28 -25 35 -4 55 22 23 24
21 24 -31z m-55 17 c3 -5 -1 -10 -10 -10 -9 0 -13 5 -10 10 3 6 8 10 10 10 2
0 7 -4 10 -10z m1315 0 c0 -5 7 -7 15 -4 16 7 21 -11 5 -21 -13 -8 -52 14 -45
26 8 12 25 12 25 -1z m-820 -60 c0 -5 3 -16 6 -25 5 -11 -2 -9 -20 8 -31 29
-33 37 -6 30 11 -3 20 -9 20 -13z m-460 -17 c0 -7 -9 -13 -20 -13 -12 0 -17 5
-14 13 3 8 11 14 19 14 8 0 15 -6 15 -14z m1910 7 c0 -5 -4 -10 -10 -10 -5 0
-10 5 -10 10 0 6 5 10 10 10 6 0 10 -4 10 -10z m-1820 -20 c0 -5 -5 -10 -11
-10 -5 0 -7 5 -4 10 3 6 8 10 11 10 2 0 4 -4 4 -10z m2380 -1 c0 -12 20 -34
38 -40 8 -3 4 -9 -9 -18 -20 -12 -21 -11 -15 4 4 12 2 16 -8 12 -8 -3 -22 1
-33 8 -10 9 -13 14 -5 15 6 0 12 7 12 15 0 8 5 15 10 15 6 0 10 -5 10 -11z
m-930 -169 c-4 -86 -7 -101 -16 -85 -14 23 -13 213 1 235 15 24 21 -33 15
-150z m-1466 119 c-8 -13 -24 -1 -24 18 0 13 3 13 15 3 8 -7 12 -16 9 -21z
m323 -6 c3 -7 -4 -11 -16 -10 -12 1 -21 7 -21 15 0 16 32 12 37 -5z m1343 -3
c0 -5 16 -10 35 -10 19 0 35 -4 35 -10 0 -5 -6 -9 -12 -7 -8 1 -15 -14 -18
-38 l-5 -39 -17 26 c-15 23 -15 27 -2 32 8 3 12 11 8 17 -5 8 -9 8 -14 -1 -6
-9 -11 -7 -19 8 -14 26 -14 32 -1 32 6 0 10 -4 10 -10z m72 -142 c-6 -26 -29
-29 -36 -5 -3 13 2 29 12 40 16 18 17 18 23 0 3 -10 4 -25 1 -35z m84 22 c8 0
14 -5 14 -10 0 -7 -6 -7 -20 0 -11 6 -20 16 -19 23 0 9 2 9 6 0 2 -7 11 -13
19 -13z m-161 -26 c-21 -16 -37 -14 -43 5 -3 9 2 11 16 7 11 -4 23 -2 27 4 4
6 10 8 13 5 4 -4 -2 -13 -13 -21z m135 6 c0 -13 -28 -25 -38 -16 -3 4 0 11 8
16 20 13 30 12 30 0z m460 0 c0 -5 -2 -10 -4 -10 -3 0 -8 5 -11 10 -3 6 -1 10
4 10 6 0 11 -4 11 -10z m-405 -70 c3 -5 -3 -10 -15 -10 -12 0 -18 5 -15 10 3
6 10 10 15 10 5 0 12 -4 15 -10z m485 -46 c0 -11 -5 -14 -17 -10 -9 4 -20 1
-24 -6 -4 -7 -11 -9 -15 -5 -11 10 16 37 37 37 11 0 19 -7 19 -16z m-870 -104
c0 -5 -4 -10 -10 -10 -5 0 -10 5 -10 10 0 6 5 10 10 10 6 0 10 -4 10 -10z
m470 1 c0 -5 8 -8 18 -6 9 1 11 0 5 -2 -16 -5 -17 -23 -3 -23 6 0 15 -11 20
-25 9 -23 21 -30 44 -26 5 1 4 -5 -3 -13 -11 -13 -19 -10 -57 27 -41 39 -58
77 -34 77 6 0 10 -4 10 -9z m143 -25 c4 -10 0 -12 -14 -9 -10 3 -16 9 -13 14
8 13 21 11 27 -5z m-615 -101 c1 -14 -3 -25 -8 -25 -6 0 -10 11 -10 25 0 14 4
25 8 25 4 0 9 -11 10 -25z m505 -21 c-1 -10 1 -21 5 -24 4 -3 13 -15 19 -27
11 -19 10 -21 -1 -17 -19 7 -66 -24 -66 -43 0 -22 -29 10 -32 34 -3 42 2 53
27 53 20 0 25 5 25 26 0 16 5 24 13 21 6 -2 11 -13 10 -23z m55 4 c-4 -27 -28
-36 -28 -10 0 20 8 32 22 32 5 0 8 -10 6 -22z m-218 -88 c0 -5 -4 -10 -10 -10
-5 0 -10 5 -10 10 0 6 5 10 10 10 6 0 10 -4 10 -10z m60 0 c0 -5 -4 -10 -10
-10 -5 0 -10 5 -10 10 0 6 5 10 10 10 6 0 10 -4 10 -10z m1596 -85 c1 -14 -2
-25 -6 -25 -11 0 -21 30 -14 41 10 16 19 9 20 -16z m154 21 c0 -11 -19 -15
-25 -6 -3 5 1 10 9 10 9 0 16 -2 16 -4z m-1610 -31 c0 -8 -4 -15 -10 -15 -5 0
-10 7 -10 15 0 8 5 15 10 15 6 0 10 -7 10 -15z m-56 -66 c-3 -5 -10 -7 -15 -3
-5 3 -7 10 -3 15 3 5 10 7 15 3 5 -3 7 -10 3 -15z m1006 -153 c0 -56 -10 -74
-37 -72 -20 1 -24 5 -19 26 3 17 -2 31 -18 45 -12 11 -15 16 -8 10 12 -8 14
-6 8 13 -6 17 -3 24 16 31 31 12 58 -13 58 -53z m-265 15 c-3 -6 -11 -8 -17
-5 -6 4 -5 9 3 15 16 10 23 4 14 -10z m565 -35 c0 -3 -4 -8 -10 -11 -5 -3 -10
-1 -10 4 0 6 5 11 10 11 6 0 10 -2 10 -4z m-800 -66 c0 -22 -4 -40 -9 -40 -12
0 -22 45 -15 64 11 29 24 16 24 -24z m-80 -25 c11 -13 10 -14 -4 -9 -9 3 -16
10 -16 15 0 13 6 11 20 -6z m130 -6 c0 -5 -4 -9 -10 -9 -5 0 -10 7 -10 16 0 8
5 12 10 9 6 -3 10 -10 10 -16z m584 1 c30 -11 35 -40 8 -40 -21 0 -42 18 -42
37 0 16 2 16 34 3z m56 -40 c0 -5 -2 -10 -4 -10 -3 0 -8 5 -11 10 -3 6 -1 10
4 10 6 0 11 -4 11 -10z m-270 -10 c0 -5 -4 -10 -10 -10 -5 0 -10 5 -10 10 0 6
5 10 10 10 6 0 10 -4 10 -10z m300 -140 c0 -5 -2 -10 -4 -10 -3 0 -8 5 -11 10
-3 6 -1 10 4 10 6 0 11 -4 11 -10z m-740 -230 c0 -5 -2 -10 -4 -10 -3 0 -8 5
-11 10 -3 6 -1 10 4 10 6 0 11 -4 11 -10z m160 0 c0 -5 -4 -10 -10 -10 -5 0
-10 5 -10 10 0 6 5 10 10 10 6 0 10 -4 10 -10z m-53 -40 c-2 -17 -6 -33 -9
-36 -8 -7 -20 45 -13 56 13 20 25 9 22 -20z m193 0 c0 -5 -4 -10 -10 -10 -5 0
-10 5 -10 10 0 6 5 10 10 10 6 0 10 -4 10 -10z m-269 -33 c12 -22 12 -22 -10
-3 -11 11 -21 23 -21 28 0 14 19 -1 31 -25z m39 -4 c0 -32 -12 -23 -16 12 -1
14 2 23 7 20 5 -4 9 -18 9 -32z m330 -27 c14 14 60 -4 60 -23 0 -15 -16 -17
-25 -3 -11 18 -47 11 -52 -10 -3 -11 -10 -20 -15 -20 -5 0 -8 6 -5 13 2 6 -3
17 -12 23 -12 9 -13 15 -3 26 6 8 8 19 4 24 -4 5 3 -2 15 -16 16 -18 25 -22
33 -14z m-232 -1 c0 -13 -4 -22 -9 -19 -5 3 -9 16 -9 30 0 14 4 23 9 20 5 -3
9 -17 9 -31z m135 9 c-1 -5 4 -15 9 -22 8 -9 8 -16 0 -24 -8 -8 -13 -4 -18 16
-3 14 -12 26 -19 26 -8 0 -16 4 -20 9 -3 5 7 8 22 7 16 -2 27 -7 26 -12z
m-173 -30 c0 -8 -5 -12 -10 -9 -6 4 -8 11 -5 16 9 14 15 11 15 -7z m295 -52
c-11 -11 -27 17 -20 35 6 16 8 16 16 -6 5 -13 7 -26 4 -29z m-285 8 c0 -5 -5
-10 -11 -10 -5 0 -7 5 -4 10 3 6 8 10 11 10 2 0 4 -4 4 -10z m183 -10 c-3 -11
-7 -20 -9 -20 -2 0 -4 9 -4 20 0 11 4 20 9 20 5 0 7 -9 4 -20z m27 -40 c0 -5
-2 -10 -4 -10 -3 0 -8 5 -11 10 -3 6 -1 10 4 10 6 0 11 -4 11 -10z m30 -35
c-7 -9 -15 -13 -19 -10 -3 3 1 10 9 15 21 14 24 12 10 -5z m-40 -55 c0 -5 -2
-10 -4 -10 -3 0 -8 5 -11 10 -3 6 -1 10 4 10 6 0 11 -4 11 -10z m60 -129 c0
-12 -20 -25 -27 -18 -7 7 6 27 18 27 5 0 9 -4 9 -9z m78 -30 c2 -13 -1 -28 -6
-33 -13 -13 -34 25 -26 47 9 22 28 13 32 -14z m-215 -68 c-7 -2 -19 -2 -25 0
-7 3 -2 5 12 5 14 0 19 -2 13 -5z"/>
<path d="M3949 3480 c-5 -18 -4 -60 2 -60 12 0 19 44 9 54 -6 6 -11 8 -11 6z"/>
<path d="M1857 3383 c-4 -3 -7 -11 -7 -17 0 -6 5 -5 12 2 6 6 9 14 7 17 -3 3
-9 2 -12 -2z"/>
<path d="M1780 3352 c0 -4 7 -18 16 -30 13 -18 19 -21 30 -11 20 16 18 24 -11
37 -31 14 -35 15 -35 4z"/>
<path d="M1710 3312 c6 -13 14 -21 18 -18 3 4 -2 14 -12 24 -18 16 -18 16 -6
-6z"/>
<path d="M2330 3270 c0 -13 18 -22 24 -11 3 5 -1 11 -9 15 -8 3 -15 1 -15 -4z"/>
<path d="M1838 3245 c-6 -30 -3 -43 8 -33 3 4 4 19 2 35 l-3 28 -7 -30z"/>
<path d="M1430 3228 c0 -11 12 -10 30 2 12 7 10 9 -8 7 -12 0 -22 -5 -22 -9z"/>
<path d="M2005 3223 c-11 -28 -14 -73 -4 -79 16 -10 49 21 38 36 -5 8 -9 25
-9 38 0 26 -15 29 -25 5z"/>
<path d="M1291 3194 c0 -11 3 -14 6 -6 3 7 2 16 -1 19 -3 4 -6 -2 -5 -13z"/>
<path d="M2496 3186 c-10 -15 -12 -27 -6 -31 6 -3 10 1 10 10 0 8 7 18 15 21
8 4 15 10 15 15 0 17 -18 9 -34 -15z"/>
<path d="M1832 3181 c2 -7 7 -12 11 -12 12 1 9 15 -3 20 -7 2 -11 -2 -8 -8z"/>
<path d="M2592 3178 c2 -6 11 -12 20 -14 11 -1 15 3 11 12 -6 17 -36 19 -31 2z"/>
<path d="M1340 3154 c0 -14 3 -14 15 -4 8 7 15 14 15 16 0 2 -7 4 -15 4 -8 0
-15 -7 -15 -16z"/>
<path d="M1940 3130 c0 -5 5 -10 11 -10 5 0 7 5 4 10 -3 6 -8 10 -11 10 -2 0
-4 -4 -4 -10z"/>
<path d="M1860 3119 c0 -5 5 -7 10 -4 6 3 10 8 10 11 0 2 -4 4 -10 4 -5 0 -10
-5 -10 -11z"/>
<path d="M1726 3104 c-9 -23 -8 -27 9 -20 10 4 15 -1 16 -17 0 -12 3 -16 6 -9
7 17 -5 62 -16 62 -5 0 -12 -7 -15 -16z"/>
<path d="M1520 3091 c0 -6 5 -13 10 -16 6 -3 10 1 10 9 0 9 -4 16 -10 16 -5 0
-10 -4 -10 -9z"/>
<path d="M1852 3060 c0 -14 2 -19 5 -12 2 6 2 18 0 25 -3 6 -5 1 -5 -13z"/>
<path d="M1780 3041 c0 -11 4 -21 9 -21 4 0 6 -12 3 -27 -7 -41 14 -16 23 27
4 19 4 32 0 28 -5 -4 -14 -3 -22 3 -10 9 -13 7 -13 -10z"/>
<path d="M2134 3048 c-8 -12 15 -29 34 -25 20 3 16 20 -7 29 -12 4 -23 3 -27
-4z"/>
<path d="M2780 3046 c0 -9 7 -16 16 -16 9 0 14 5 12 12 -6 18 -28 21 -28 4z"/>
<path d="M2485 3000 c-9 -15 -1 -23 21 -18 15 3 16 4 1 16 -11 9 -17 10 -22 2z"/>
<path d="M3757 2993 c-4 -3 -7 -16 -7 -27 1 -19 1 -20 11 -3 6 9 14 15 20 12
5 -4 9 1 9 9 0 16 -21 22 -33 9z"/>
<path d="M1488 2965 c9 -32 25 -32 28 0 2 19 -2 25 -16 25 -15 0 -17 -5 -12
-25z"/>
<path d="M1710 2946 c0 -9 5 -16 10 -16 6 0 10 4 10 9 0 6 -4 13 -10 16 -5 3
-10 -1 -10 -9z"/>
<path d="M2161 2934 c0 -11 3 -14 6 -6 3 7 2 16 -1 19 -3 4 -6 -2 -5 -13z"/>
<path d="M3965 2929 c8 -13 -31 -52 -44 -45 -13 8 -23 -42 -13 -61 6 -11 11
-12 16 -4 4 6 18 11 32 11 16 0 24 6 24 18 0 10 5 23 10 28 12 12 -6 64 -22
64 -5 0 -6 -5 -3 -11z m-34 -92 c-13 -13 -26 -3 -16 12 3 6 11 8 17 5 6 -4 6
-10 -1 -17z"/>
<path d="M1606 2913 c-12 -12 -6 -41 10 -47 22 -8 22 -9 16 19 -5 27 -15 38
-26 28z"/>
<path d="M1806 2895 c4 -8 10 -12 15 -9 14 8 10 24 -6 24 -9 0 -12 -6 -9 -15z"/>
<path d="M2865 2901 c-6 -11 9 -23 19 -14 9 9 7 23 -3 23 -6 0 -12 -4 -16 -9z"/>
<path d="M2778 2893 c7 -3 16 -2 19 1 4 3 -2 6 -13 5 -11 0 -14 -3 -6 -6z"/>
<path d="M1550 2880 c0 -5 5 -10 10 -10 6 0 10 5 10 10 0 6 -4 10 -10 10 -5 0
-10 -4 -10 -10z"/>
<path d="M2255 2880 c3 -5 11 -10 16 -10 6 0 7 5 4 10 -3 6 -11 10 -16 10 -6
0 -7 -4 -4 -10z"/>
<path d="M3736 2864 c-18 -18 -21 -34 -6 -34 6 0 10 5 10 10 0 6 7 10 15 10
17 0 20 16 6 25 -5 3 -17 -2 -25 -11z"/>
<path d="M1758 2856 c-10 -7 -15 -16 -11 -19 3 -4 13 -2 20 5 11 9 16 9 23 -1
6 -10 9 -10 15 -1 4 7 1 16 -6 21 -18 11 -21 11 -41 -5z"/>
<path d="M2485 2860 c-3 -5 -1 -10 4 -10 6 0 11 5 11 10 0 6 -2 10 -4 10 -3 0
-8 -4 -11 -10z"/>
<path d="M1896 2851 c-4 -7 -5 -15 -2 -18 9 -9 19 4 14 18 -4 11 -6 11 -12 0z"/>
<path d="M1920 2834 c0 -8 5 -12 10 -9 6 4 8 11 5 16 -9 14 -15 11 -15 -7z"/>
<path d="M1724 2811 c20 -22 26 -25 26 -13 0 4 -10 13 -22 21 -23 14 -23 14
-4 -8z"/>
<path d="M1902 2804 c10 -10 20 -15 24 -12 3 4 -5 12 -18 18 -22 12 -22 12 -6
-6z"/>
<path d="M2000 2800 c0 -11 5 -20 10 -20 6 0 10 9 10 20 0 11 -4 20 -10 20 -5
0 -10 -9 -10 -20z"/>
<path d="M2135 2810 c-3 -5 3 -10 15 -10 12 0 18 5 15 10 -3 6 -10 10 -15 10
-5 0 -12 -4 -15 -10z"/>
<path d="M3973 2790 c-15 -24 -6 -80 13 -80 10 0 14 14 14 50 0 53 -8 62 -27
30z"/>
<path d="M2169 2773 c-13 -16 -12 -17 4 -4 9 7 17 15 17 17 0 8 -8 3 -21 -13z"/>
<path d="M2408 2783 c7 -3 16 -2 19 1 4 3 -2 6 -13 5 -11 0 -14 -3 -6 -6z"/>
<path d="M1680 2773 c0 -4 5 -15 10 -23 8 -13 10 -13 10 2 0 9 -4 20 -10 23
-5 3 -10 3 -10 -2z"/>
<path d="M1740 2769 c0 -5 5 -7 10 -4 6 3 10 -1 10 -10 0 -9 4 -14 9 -11 11 7
23 -22 15 -35 -3 -5 -1 -9 4 -9 17 0 22 44 6 53 -8 4 -12 12 -9 18 4 5 -5 9
-19 9 -14 0 -26 -5 -26 -11z"/>
<path d="M3782 2768 c-14 -14 -16 -38 -4 -38 12 0 32 23 32 37 0 16 -12 17
-28 1z"/>
<path d="M3826 2771 c-7 -11 22 -23 35 -15 5 3 9 9 9 15 0 12 -37 12 -44 0z"/>
<path d="M1906 2743 c-6 -14 -5 -15 5 -6 7 7 10 15 7 18 -3 3 -9 -2 -12 -12z"/>
<path d="M3894 2736 c-13 -10 -23 -11 -31 -4 -20 16 -58 1 -71 -27 -15 -32
-15 -48 -2 -40 13 8 13 -8 -1 -22 -8 -8 -8 -17 0 -32 10 -17 9 -21 -4 -21 -8
0 -15 -3 -15 -7 0 -17 16 -29 38 -29 16 0 21 4 16 16 -15 36 -16 53 -4 60 17
10 22 61 7 78 -9 11 -4 12 29 6 38 -7 63 -27 64 -51 0 -7 7 -10 15 -7 13 5 11
11 -10 31 -27 27 -25 46 3 36 15 -6 15 -5 3 10 -16 20 -13 20 -37 3z"/>
<path d="M1855 2730 c-3 -5 -1 -10 4 -10 6 0 11 5 11 10 0 6 -2 10 -4 10 -3 0
-8 -4 -11 -10z"/>
<path d="M2012 2719 c-17 -27 -6 -38 15 -16 11 11 14 20 7 27 -6 6 -14 2 -22
-11z"/>
<path d="M1735 2720 c-3 -5 -1 -10 4 -10 6 0 11 5 11 10 0 6 -2 10 -4 10 -3 0
-8 -4 -11 -10z"/>
<path d="M2118 2723 c6 -2 18 -2 25 0 6 3 1 5 -13 5 -14 0 -19 -2 -12 -5z"/>
<path d="M1916 2681 c17 -26 31 -38 41 -34 8 3 10 8 5 12 -5 3 -11 15 -13 26
-3 11 -9 20 -16 20 -6 0 -15 3 -19 8 -22 22 -21 2 2 -32z"/>
<path d="M2040 2700 c0 -5 5 -10 10 -10 6 0 10 5 10 10 0 6 -4 10 -10 10 -5 0
-10 -4 -10 -10z"/>
<path d="M2607 2686 c-8 -21 3 -27 26 -15 16 9 17 13 6 20 -19 12 -26 11 -32
-5z"/>
<path d="M3863 2693 c-18 -7 -16 -23 2 -23 8 0 15 7 15 15 0 8 -1 15 -2 14 -2
0 -9 -3 -15 -6z"/>
<path d="M1720 2675 c0 -11 44 -65 52 -65 16 0 7 25 -16 48 -23 21 -36 28 -36
17z"/>
<path d="M3109 2663 c-13 -16 -12 -17 4 -4 16 13 21 21 13 21 -2 0 -10 -8 -17
-17z"/>
<path d="M3867 2654 c-4 -4 -7 -20 -7 -36 0 -35 23 -34 28 1 4 25 -10 46 -21
35z"/>
<path d="M1690 2631 c0 -10 30 -24 37 -17 3 3 2 9 -2 15 -8 13 -35 15 -35 2z"/>
<path d="M2040 2626 c0 -31 12 -47 26 -35 10 8 11 15 1 30 -14 22 -27 25 -27
5z"/>
<path d="M3150 2620 c-6 -11 -15 -18 -21 -15 -5 4 -9 1 -9 -5 0 -8 9 -10 25
-6 19 5 23 3 19 -9 -4 -10 0 -15 15 -15 18 0 20 4 15 28 -12 49 -26 56 -44 22z"/>
<path d="M3220 2629 c0 -5 5 -7 10 -4 6 3 10 8 10 11 0 2 -4 4 -10 4 -5 0 -10
-5 -10 -11z"/>
<path d="M2710 2600 c0 -5 7 -10 15 -10 8 0 15 5 15 10 0 6 -7 10 -15 10 -8 0
-15 -4 -15 -10z"/>
<path d="M1489 2583 c5 -10 21 -29 35 -42 25 -24 26 -24 46 -6 11 10 20 13 20
7 0 -7 -4 -12 -10 -12 -5 0 -10 -4 -10 -10 0 -5 8 -10 19 -10 26 0 34 38 10
50 -10 6 -16 17 -13 25 4 8 2 15 -4 15 -5 0 -12 -9 -15 -21 -4 -17 -10 -19
-29 -14 -13 4 -27 14 -31 21 -12 21 -30 17 -18 -3z"/>
<path d="M1736 2565 c4 -8 10 -12 15 -9 11 6 2 24 -11 24 -5 0 -7 -7 -4 -15z"/>
<path d="M3075 2560 c3 -5 8 -10 11 -10 2 0 4 5 4 10 0 6 -5 10 -11 10 -5 0
-7 -4 -4 -10z"/>
<path d="M3910 2561 c0 -5 -10 -11 -21 -13 -31 -4 -47 -33 -32 -57 10 -16 9
-24 -7 -44 -23 -28 -26 -51 -8 -45 7 3 20 -5 30 -16 16 -20 17 -20 18 -2 0 12
5 16 15 12 8 -3 15 -1 15 3 0 5 -5 11 -11 13 -6 2 -11 25 -12 52 -2 39 2 51
21 67 13 10 21 23 17 29 -8 13 -25 13 -25 1z"/>
<path d="M3090 2520 c0 -5 5 -10 10 -10 6 0 10 5 10 10 0 6 -4 10 -10 10 -5 0
-10 -4 -10 -10z"/>
<path d="M3675 2521 c-3 -5 -1 -12 5 -16 5 -3 10 1 10 9 0 18 -6 21 -15 7z"/>
<path d="M3776 2521 c-4 -6 -2 -20 5 -32 11 -21 12 -21 21 -5 12 21 -14 57
-26 37z"/>
<path d="M3021 2488 c-6 -16 -17 -28 -26 -28 -8 0 -15 -4 -15 -10 0 -5 7 -10
15 -10 18 0 49 45 42 62 -3 8 -9 2 -16 -14z"/>
<path d="M3720 2494 c0 -8 5 -12 10 -9 6 4 8 11 5 16 -9 14 -15 11 -15 -7z"/>
<path d="M1670 2483 c0 -12 5 -25 11 -28 17 -11 18 -2 4 25 -14 24 -14 24 -15
3z"/>
<path d="M3930 2473 c0 -13 22 -33 37 -33 7 0 13 7 13 15 0 8 -4 15 -9 15 -5
0 -16 3 -25 6 -9 3 -16 2 -16 -3z"/>
<path d="M2891 2433 c0 -25 1 -26 9 -8 12 27 12 35 0 35 -5 0 -10 -12 -9 -27z"/>
<path d="M3165 2430 c3 -5 8 -10 11 -10 2 0 4 5 4 10 0 6 -5 10 -11 10 -5 0
-7 -4 -4 -10z"/>
<path d="M1576 2383 c-4 -9 -2 -21 4 -27 7 -7 10 -2 10 17 0 31 -5 34 -14 10z"/>
<path d="M1770 2393 c0 -5 5 -15 10 -23 8 -12 10 -11 10 8 0 12 -4 22 -10 22
-5 0 -10 -3 -10 -7z"/>
<path d="M3610 2380 c0 -5 7 -10 15 -10 8 0 15 5 15 10 0 6 -7 10 -15 10 -8 0
-15 -4 -15 -10z"/>
<path d="M3780 2375 c0 -8 2 -15 4 -15 2 0 6 7 10 15 3 8 1 15 -4 15 -6 0 -10
-7 -10 -15z"/>
<path d="M3440 2360 c-13 -11 -18 -20 -12 -20 10 0 42 27 42 36 0 8 -7 4 -30
-16z"/>
<path d="M3495 2320 c3 -5 8 -10 11 -10 2 0 4 5 4 10 0 6 -5 10 -11 10 -5 0
-7 -4 -4 -10z"/>
<path d="M3340 2261 c0 -6 4 -12 10 -16 14 -8 61 6 54 17 -3 5 -12 4 -22 -4
-12 -10 -16 -10 -19 0 -5 14 -23 16 -23 3z"/>
<path d="M2827 2230 c-3 -11 0 -23 6 -27 7 -3 9 -3 5 2 -4 4 -3 14 3 21 6 7 6
15 1 18 -6 3 -12 -3 -15 -14z"/>
<path d="M2792 2196 c0 -20 4 -39 9 -42 16 -9 10 -34 -8 -34 -33 0 19 -26 57
-28 19 -2 38 -8 42 -15 4 -7 8 -8 8 -1 0 13 -38 54 -50 54 -6 0 -10 11 -10 25
0 18 -4 23 -15 19 -10 -4 -15 0 -15 12 0 11 -4 25 -9 33 -6 10 -9 2 -9 -23z"/>
<path d="M3360 2221 c0 -5 5 -13 10 -16 6 -3 10 -2 10 4 0 5 -4 13 -10 16 -5
3 -10 2 -10 -4z"/>
<path d="M3910 2173 c0 -10 4 -24 9 -32 8 -12 11 -12 24 1 14 13 13 17 -4 31
-24 21 -29 21 -29 0z"/>
<path d="M3966 2148 c-7 -36 -5 -41 18 -32 10 4 15 13 12 21 -3 8 -6 21 -6 29
0 27 -18 14 -24 -18z"/>
<path d="M3860 2141 c0 -12 5 -21 10 -21 6 0 10 6 10 14 0 8 -4 18 -10 21 -5
3 -10 -3 -10 -14z"/>
<path d="M2880 2134 c0 -20 28 -24 33 -5 3 11 -2 17 -14 17 -11 0 -19 -6 -19
-12z"/>
<path d="M2925 2080 c-3 -5 -2 -10 4 -10 5 0 13 5 16 10 3 6 2 10 -4 10 -5 0
-13 -4 -16 -10z"/>
<path d="M3969 2063 c-12 -16 -19 -20 -16 -11 5 14 -1 19 -28 24 -39 7 -69 -1
-60 -16 8 -13 35 -13 35 0 0 6 5 10 10 10 6 0 10 -6 10 -14 0 -16 -44 -29 -71
-21 -15 5 -19 1 -19 -14 0 -14 6 -21 18 -21 13 0 18 -7 17 -27 -1 -42 15 -63
42 -57 20 5 23 2 23 -22 1 -26 2 -27 14 -12 10 14 15 15 25 5 21 -21 31 13 31
111 0 50 -2 92 -4 92 -3 0 -15 -12 -27 -27z m-22 -49 c-9 -9 -28 6 -21 18 4 6
10 6 17 -1 6 -6 8 -13 4 -17z"/>
<path d="M2763 2053 c7 -8 21 -11 30 -7 27 10 20 21 -13 21 -26 0 -29 -2 -17
-14z"/>
<path d="M2855 2020 c-11 -17 5 -32 21 -19 8 6 14 15 14 20 0 12 -27 11 -35
-1z"/>
<path d="M3790 1950 c0 -5 9 -10 20 -10 11 0 20 5 20 10 0 6 -9 10 -20 10 -11
0 -20 -4 -20 -10z"/>
<path d="M3933 1839 c-6 -6 -9 -18 -6 -25 3 -8 -1 -14 -9 -14 -16 0 -23 -46
-8 -55 6 -4 8 -11 5 -16 -4 -5 -2 -9 2 -9 5 0 17 19 28 42 17 38 19 40 26 20
14 -36 26 -25 28 25 1 42 0 45 -12 29 -12 -17 -14 -17 -20 -2 -7 19 -19 20
-34 5z"/>
<path d="M3310 1810 c0 -5 5 -10 11 -10 5 0 7 5 4 10 -3 6 -8 10 -11 10 -2 0
-4 -4 -4 -10z"/>
<path d="M2744 1789 c-3 -6 0 -15 7 -20 22 -14 29 -11 29 11 0 21 -24 27 -36
9z"/>
<path d="M2629 1702 c-1 -9 -3 -32 -5 -50 -1 -23 4 -39 19 -52 27 -26 47 -25
47 0 0 11 -6 20 -14 20 -21 0 -28 17 -16 39 12 23 5 47 -16 55 -8 3 -15 -1
-15 -12z"/>
<path d="M2890 1700 c0 -5 5 -10 11 -10 5 0 7 5 4 10 -3 6 -8 10 -11 10 -2 0
-4 -4 -4 -10z"/>
<path d="M3887 1603 c-11 -11 -8 -20 8 -20 8 0 15 6 15 14 0 14 -12 17 -23 6z"/>
<path d="M2760 1580 c0 -5 7 -10 15 -10 8 0 15 5 15 10 0 6 -7 10 -15 10 -8 0
-15 -4 -15 -10z"/>
<path d="M2954 1495 c26 -20 42 -19 22 0 -8 8 -21 15 -28 15 -8 -1 -6 -6 6
-15z"/>
<path d="M3380 1475 c0 -9 5 -15 11 -13 6 2 11 8 11 13 0 5 -5 11 -11 13 -6 2
-11 -4 -11 -13z"/>
<path d="M3834 1444 c3 -9 6 -20 6 -25 0 -5 4 -9 9 -9 4 0 6 11 3 25 -2 14 -9
25 -14 25 -6 0 -7 -7 -4 -16z"/>
<path d="M2720 1425 c0 -8 4 -15 10 -15 5 0 7 7 4 15 -4 8 -8 15 -10 15 -2 0
-4 -7 -4 -15z"/>
<path d="M2736 1391 c-4 -7 -5 -15 -2 -18 9 -9 19 4 14 18 -4 11 -6 11 -12 0z"/>
<path d="M2800 1380 c0 -30 22 -70 38 -70 11 0 12 3 3 14 -6 8 -11 18 -10 22
2 16 -13 54 -22 54 -5 0 -9 -9 -9 -20z"/>
<path d="M2960 1360 c0 -5 7 -10 15 -10 8 0 15 5 15 10 0 6 -7 10 -15 10 -8 0
-15 -4 -15 -10z"/>
<path d="M3045 1320 c-3 -5 1 -10 10 -10 9 0 13 5 10 10 -3 6 -8 10 -10 10 -2
0 -7 -4 -10 -10z"/>
<path d="M2745 1300 c3 -5 8 -10 11 -10 2 0 4 5 4 10 0 6 -5 10 -11 10 -5 0
-7 -4 -4 -10z"/>
<path d="M2806 1283 c4 -16 11 -34 17 -40 6 -9 6 -13 -2 -13 -7 0 -9 -5 -6
-11 4 -5 -3 -18 -14 -28 -26 -23 -26 -26 -1 -28 14 -1 20 4 20 18 0 10 4 19 9
19 5 0 13 15 16 33 4 17 13 35 19 39 7 5 5 8 -5 8 -9 0 -22 7 -29 15 -20 24
-31 18 -24 -12z"/>
<path d="M2708 1273 c7 -3 16 -2 19 1 4 3 -2 6 -13 5 -11 0 -14 -3 -6 -6z"/>
<path d="M3480 1250 c0 -5 5 -10 10 -10 6 0 10 5 10 10 0 6 -4 10 -10 10 -5 0
-10 -4 -10 -10z"/>
<path d="M3090 1240 c-13 -8 -13 -10 2 -10 9 0 20 5 23 10 8 13 -5 13 -25 0z"/>
<path d="M2690 1210 c0 -5 5 -10 10 -10 6 0 10 5 10 10 0 6 -4 10 -10 10 -5 0
-10 -4 -10 -10z"/>
<path d="M2740 1190 c-7 -14 -7 -26 -1 -39 6 -10 7 -21 4 -25 -3 -3 -2 -6 4
-6 15 0 23 36 10 49 -7 7 -6 15 3 26 8 10 9 15 2 15 -6 0 -16 -9 -22 -20z"/>
<path d="M2699 1154 c-11 -30 -3 -46 11 -24 10 16 13 50 5 50 -3 0 -10 -12
-16 -26z"/>
<path d="M3320 1171 c0 -4 5 -22 11 -40 11 -32 49 -45 49 -16 0 8 -7 15 -15
15 -8 0 -17 11 -21 25 -6 23 -24 36 -24 16z"/>
<path d="M3870 1090 c0 -5 5 -10 10 -10 6 0 10 5 10 10 0 6 -4 10 -10 10 -5 0
-10 -4 -10 -10z"/>
<path d="M3410 662 c0 -12 19 -26 26 -19 2 2 -2 10 -11 17 -9 8 -15 8 -15 2z"/>
<path d="M3442 595 c1 -14 6 -25 10 -25 4 0 8 11 8 25 0 14 -4 25 -10 25 -5 0
-9 -11 -8 -25z"/>
<path d="M3480 551 c0 -5 6 -14 14 -20 11 -9 16 -9 21 0 4 6 1 15 -6 20 -18
11 -29 11 -29 0z"/>
<path d="M3245 540 c-3 -5 1 -10 9 -10 9 0 16 5 16 10 0 6 -4 10 -9 10 -6 0
-13 -4 -16 -10z"/>
<path d="M3480 420 c-9 -6 -10 -10 -3 -10 6 0 15 5 18 10 8 12 4 12 -15 0z"/>
<path d="M3282 378 c7 -19 34 -32 53 -24 14 5 15 9 5 21 -15 18 -63 20 -58 3z"/>
<path d="M3320 155 c0 -8 5 -15 10 -15 6 0 10 7 10 15 0 8 -4 15 -10 15 -5 0
-10 -7 -10 -15z"/>
<path d="M3890 64 c0 -8 5 -12 10 -9 6 4 8 11 5 16 -9 14 -15 11 -15 -7z"/>
<path d="M3138 33 c7 -3 16 -2 19 1 4 3 -2 6 -13 5 -11 0 -14 -3 -6 -6z"/>
</g>
</svg>
